<svg width="39" height="24" viewBox="0 0 39 24" fill="none" xmlns="http://www.w3.org/2000/svg">
<path d="M24.7433 2.56714H14.1963V21.4332H24.7433V2.56714Z" fill="#FF5A00"/>
<path d="M14.8999 12C14.8999 8.16699 16.7098 4.76505 19.4869 2.56699C17.4431 0.96699 14.8648 0 12.0526 0C5.3905 0 0 5.36699 0 12C0 18.633 5.3905 24 12.0526 24C14.8648 24 17.4431 23.033 19.4869 21.433C16.7059 19.266 14.8999 15.833 14.8999 12Z" fill="#EB001B"/>
<path d="M38.9752 12C38.9752 18.633 33.5847 24 26.9226 24C24.1104 24 21.5321 23.033 19.4883 21.433C22.3005 19.2311 24.0753 15.833 24.0753 12C24.0753 8.16699 22.2654 4.76505 19.4883 2.56699C21.5282 0.96699 24.1065 0 26.9187 0C33.5847 0 38.9752 5.40194 38.9752 12Z" fill="#F79E1B"/>
</svg>