<svg width="10" height="14" viewBox="0 0 10 14" fill="none" xmlns="http://www.w3.org/2000/svg">
<g clip-path="url(#clip0_441_428)">
<path d="M2.58443 13.9999C3.87243 13.9999 4.91776 12.9546 4.91776 11.6666V9.33327H2.58443C1.29643 9.33327 0.251099 10.3786 0.251099 11.6666C0.251099 12.9546 1.29643 13.9999 2.58443 13.9999Z" fill="#5ECB89"/>
<path d="M0.251099 7.00006C0.251099 5.71206 1.29643 4.66673 2.58443 4.66673H4.91776V9.33339H2.58443C1.29643 9.33339 0.251099 8.28806 0.251099 7.00006Z" fill="#9761F6"/>
<path d="M0.250732 2.33338C0.250732 1.04538 1.29606 4.76837e-05 2.58406 4.76837e-05H4.9174V4.66671H2.58406C1.29606 4.66671 0.250732 3.62138 0.250732 2.33338Z" fill="#E05A33"/>
<path d="M4.91772 7.24792e-05H7.25107C8.53907 7.24792e-05 9.58441 1.04541 9.58441 2.33341C9.58441 3.62141 8.53907 4.66674 7.25107 4.66674H4.91772V7.24792e-05Z" fill="#EE7A69"/>
<path d="M9.58441 7.00006C9.58441 8.28806 8.53907 9.33339 7.25107 9.33339C5.96306 9.33339 4.91772 8.28806 4.91772 7.00006C4.91772 5.71206 5.96306 4.66673 7.25107 4.66673C8.53907 4.66673 9.58441 5.71206 9.58441 7.00006Z" fill="#56BAF8"/>
</g>
<defs>
<clipPath id="clip0_441_428">
<rect width="9.3352" height="14" fill="white" transform="translate(0.25)"/>
</clipPath>
</defs>
</svg>