<svg width="18" height="19" viewBox="0 0 18 19" fill="none" xmlns="http://www.w3.org/2000/svg">
<path d="M0 2.5C0 1.39543 0.895431 0.5 2 0.5H16C17.1046 0.5 18 1.39543 18 2.5V16.5C18 17.6046 17.1046 18.5 16 18.5H2C0.895431 18.5 0 17.6046 0 16.5V2.5ZM2 11.5V16.5H16V11.5H13.7208L12.9487 13.8162C12.8126 14.2246 12.4304 14.5 12 14.5H6C5.56957 14.5 5.18743 14.2246 5.05132 13.8162L4.27924 11.5H2ZM16 9.5V2.5H2V9.5H4.27924C5.1401 9.5 5.90438 10.0509 6.17661 10.8675L6.72076 12.5H11.2792L11.8234 10.8675C12.0956 10.0509 12.8599 9.5 13.7208 9.5H16Z" fill="black"/>
</svg>