<svg width="24" height="25" viewBox="0 0 24 25" fill="none" xmlns="http://www.w3.org/2000/svg">
<path d="M10.1461 3.74812C10.4433 3.01616 11.1614 2.5 12 2.5C12.8386 2.5 13.5567 3.01616 13.8539 3.74812C16.8202 4.56072 19 7.27579 19 10.5V15.1972L20.8321 17.9453C21.0366 18.2522 21.0557 18.6467 20.8817 18.9719C20.7077 19.297 20.3688 19.5 20 19.5H15.4646C15.2219 21.1961 13.7632 22.5 12 22.5C10.2368 22.5 8.77806 21.1961 8.53545 19.5H4C3.63121 19.5 3.29235 19.297 3.11833 18.9719C2.94431 18.6467 2.96338 18.2522 3.16795 17.9453L5 15.1972V10.5C5 7.27579 7.17983 4.56072 10.1461 3.74812ZM10.5854 19.5C10.7913 20.0826 11.3469 20.5 12 20.5C12.6531 20.5 13.2087 20.0826 13.4146 19.5H10.5854ZM12 5.5C9.23858 5.5 7 7.73858 7 10.5V15.5C7 15.6974 6.94156 15.8904 6.83205 16.0547L5.86852 17.5H18.1315L17.168 16.0547C17.0584 15.8904 17 15.6974 17 15.5V10.5C17 7.73858 14.7614 5.5 12 5.5Z" fill="black"/>
<circle cx="18" cy="7" r="3.5" fill="#FF3636" stroke="white"/>
</svg>