<svg width="14" height="12" viewBox="0 0 14 12" fill="none" xmlns="http://www.w3.org/2000/svg">
<g clip-path="url(#clip0_441_438)">
<g opacity="0.9">
<path d="M5.41269 11.375C5.30742 11.375 5.20215 11.3354 5.12285 11.2547L2.50059 8.63245C2.34062 8.47249 2.34062 8.21272 2.50059 8.05276C2.66055 7.89279 2.92031 7.89279 3.08027 8.05276L5.70254 10.675C5.8625 10.835 5.8625 11.0948 5.70254 11.2547C5.62324 11.3354 5.51797 11.375 5.41269 11.375Z" fill="#F7B21B"/>
</g>
<g opacity="0.9">
<path d="M5.41538 6.61307C5.31011 6.61307 5.2062 6.57342 5.12554 6.49276L2.50054 3.87461C2.34058 3.71465 2.33921 3.45489 2.49917 3.29493C2.65913 3.13497 2.9189 3.1336 3.07886 3.29356L5.70386 5.91171C5.86382 6.07167 5.86519 6.33143 5.70523 6.49139C5.62593 6.57342 5.52066 6.61307 5.41538 6.61307Z" fill="#F7B21B"/>
</g>
<g opacity="0.9">
<path d="M5.41272 8.9961C5.30745 8.9961 5.20217 8.95645 5.12288 8.87579L2.50608 6.25899C2.34612 6.09903 2.34612 5.83926 2.50608 5.6793C2.66604 5.51934 2.92581 5.51934 3.08577 5.6793L5.70256 8.2961C5.86252 8.45606 5.86252 8.71583 5.70256 8.87579C5.62327 8.95508 5.51799 8.9961 5.41272 8.9961Z" fill="#F7B21B"/>
</g>
<g opacity="0.9">
<path d="M8.46975 8.31796C8.36448 8.31796 8.2592 8.27832 8.17991 8.19765C8.01995 8.03769 8.01995 7.77793 8.17991 7.61796L13.2987 2.49921C13.4586 2.33925 13.7184 2.33925 13.8784 2.49921C14.0383 2.65918 14.0383 2.91894 13.8784 3.0789L8.7596 8.19765C8.6803 8.27832 8.57503 8.31796 8.46975 8.31796Z" fill="#236EB4"/>
</g>
<g opacity="0.9">
<path d="M8.46975 5.93906C8.36448 5.93906 8.25921 5.89941 8.17991 5.81875C8.01995 5.65879 8.01995 5.39902 8.17991 5.23906L11.8194 1.59961L11.2096 0.989844L8.76097 3.43848C8.601 3.59844 8.34124 3.59844 8.18128 3.43848C8.02131 3.27852 8.02131 3.01875 8.18128 2.85879L10.9198 0.120313C10.9963 0.04375 11.1016 0 11.2096 0C11.319 0 11.4229 0.04375 11.4995 0.120313L12.6889 1.30977C12.8489 1.46973 12.8489 1.72949 12.6889 1.88945L8.7596 5.81875C8.6803 5.89805 8.57503 5.93906 8.46975 5.93906Z" fill="#236EB4"/>
</g>
<g opacity="0.9">
<path d="M5.41543 6.61308C5.31016 6.61308 5.20488 6.57343 5.12559 6.49277C4.96562 6.33281 4.96562 6.07304 5.12559 5.91308L8.1799 2.85879C8.33986 2.69883 8.59963 2.69883 8.75959 2.85879C8.91956 3.01875 8.91956 3.27851 8.75959 3.43847L5.70664 6.49277C5.62598 6.57343 5.52071 6.61308 5.41543 6.61308Z" fill="#049949"/>
</g>
<g opacity="0.9">
<path d="M5.41274 8.99609C5.30747 8.99609 5.2022 8.95644 5.1229 8.87578C4.96294 8.71582 4.96294 8.45605 5.1229 8.29609L8.17993 5.23906C8.33989 5.0791 8.59966 5.0791 8.75962 5.23906C8.91958 5.39902 8.91958 5.65878 8.75962 5.81875L5.70259 8.87578C5.62329 8.95507 5.51802 8.99609 5.41274 8.99609Z" fill="#049949"/>
</g>
<g opacity="0.9">
<path d="M5.41274 11.375C5.30747 11.375 5.2022 11.3354 5.1229 11.2547C4.96294 11.0947 4.96294 10.835 5.1229 10.675L8.17993 7.61799C8.33989 7.45803 8.59966 7.45803 8.75962 7.61799C8.91958 7.77795 8.91958 8.03772 8.75962 8.19768L5.70259 11.2547C5.62329 11.3354 5.51802 11.375 5.41274 11.375Z" fill="#049949"/>
</g>
<g opacity="0.9">
<path d="M2.79041 8.75276C2.68513 8.75276 2.57986 8.71312 2.50056 8.63245L0.121655 6.25353C0.0450928 6.17697 0.00134277 6.0717 0.00134277 5.96369C0.00134277 5.85568 0.0450928 5.75041 0.121655 5.67384L2.50056 3.29493C2.66052 3.13497 2.92029 3.13497 3.08025 3.29493C3.24021 3.45489 3.24021 3.71466 3.08025 3.87462L0.991187 5.96369L3.08025 8.05276C3.24021 8.21272 3.24021 8.47249 3.08025 8.63245C3.00095 8.71312 2.89568 8.75276 2.79041 8.75276Z" fill="#E32628"/>
</g>
</g>
<defs>
<clipPath id="clip0_441_438">
<rect width="14" height="11.375" fill="white"/>
</clipPath>
</defs>
</svg>